{
  "accessors": [
    {
      "bufferView": 2,
      "componentType": 5126,
      "count": 65532,
      "max": [
        0.9266369938850403,
        -2.762057065963745,
        1.002830982208252
      ],
      "min": [
        -0.8376749753952026,
        -5.480134010314941,
        -1.124783992767334
      ],
      "type": "VEC3"
    },
    {
      "bufferView": 2,
      "byteOffset": 786384,
      "componentType": 5126,
      "count": 65532,
      "max": [
        0.9999988675117493,
        0.9414457678794861,
        0.9999633431434631
      ],
      "min": [
        -0.9999753832817078,
        -0.9995522499084473,
        -0.9999977350234985
      ],
      "type": "VEC3"
    },
    {
      "bufferView": 1,
      "componentType": 5126,
      "count": 65532,
      "max": [
        0.9830219745635986,
        0.999396026134491
      ],
      "min": [
        0.0006200000061653554,
        0.0025190000887960196
      ],
      "type": "VEC2"
    },
    {
      "bufferView": 0,
      "componentType": 5125,
      "count": 348087,
      "type": "SCALAR"
    },
    {
      "bufferView": 2,
      "byteOffset": 1572768,
      "componentType": 5126,
      "count": 25531,
      "max": [
        0.9506679773330688,
        -2.761604070663452,
        1.0025190114974976
      ],
      "min": [
        -0.8337090015411377,
        -5.4808478355407715,
        -1.1180980205535889
      ],
      "type": "VEC3"
    },
    {
      "bufferView": 2,
      "byteOffset": 1879140,
      "componentType": 5126,
      "count": 25531,
      "max": [
        0.9999909996986389,
        0.9688324928283691,
        0.999948263168335
      ],
      "min": [
        -0.9999098777770996,
        -0.9999679923057556,
        -0.9999977350234985
      ],
      "type": "VEC3"
    },
    {
      "bufferView": 1,
      "byteOffset": 524256,
      "componentType": 5126,
      "count": 25531,
      "max": [
        0.9824540019035339,
        0.9994329810142517
      ],
      "min": [
        0.0005779999773949385,
        0.0019600000232458115
      ],
      "type": "VEC2"
    },
    {
      "bufferView": 0,
      "byteOffset": 1392348,
      "componentType": 5125,
      "count": 64500,
      "type": "SCALAR"
    }
  ],
  "asset": {
    "extras": {
      "author": "Arkdirfe (https://sketchfab.com/Arkdirfe)",
      "license": "CC-BY-4.0 (http://creativecommons.org/licenses/by/4.0/)",
      "source": "https://sketchfab.com/3d-models/gypsum-fist-18edf463ee424903aa5d9fe3d54a9694",
      "title": "Gypsum Fist"
    },
    "generator": "Sketchfab-12.68.0",
    "version": "2.0"
  },
  "bufferViews": [
    {
      "buffer": 0,
      "byteLength": 1650348,
      "name": "floatBufferViews",
      "target": 34963
    },
    {
      "buffer": 0,
      "byteLength": 728504,
      "byteOffset": 1650348,
      "byteStride": 8,
      "name": "floatBufferViews",
      "target": 34962
    },
    {
      "buffer": 0,
      "byteLength": 2185512,
      "byteOffset": 2378852,
      "byteStride": 12,
      "name": "floatBufferViews",
      "target": 34962
    }
  ],
  "buffers": [
    {
      "byteLength": 4564364,
      "uri": "scene.bin"
    }
  ],
  "images": [
    {
      "uri": "textures/Hand_baseColor.png"
    }
  ],
  "materials": [
    {
      "doubleSided": true,
      "name": "Hand",
      "pbrMetallicRoughness": {
        "baseColorTexture": {
          "index": 0
        },
        "metallicFactor": 0.0
      }
    }
  ],
  "meshes": [
    {
      "name": "Object_0",
      "primitives": [
        {
          "attributes": {
            "NORMAL": 1,
            "POSITION": 0,
            "TEXCOORD_0": 2
          },
          "indices": 3,
          "material": 0,
          "mode": 4
        }
      ]
    },
    {
      "name": "Object_1",
      "primitives": [
        {
          "attributes": {
            "NORMAL": 5,
            "POSITION": 4,
            "TEXCOORD_0": 6
          },
          "indices": 7,
          "material": 0,
          "mode": 4
        }
      ]
    }
  ],
  "nodes": [
    {
      "children": [
        1
      ],
      "matrix": [
        1.0,
        0.0,
        0.0,
        0.0,
        0.0,
        2.220446049250313e-16,
        -1.0,
        0.0,
        0.0,
        1.0,
        2.220446049250313e-16,
        0.0,
        0.0,
        0.0,
        0.0,
        1.0
      ],
      "name": "Sketchfab_model"
    },
    {
      "children": [
        2,
        3
      ],
      "name": "Hand.obj.cleaner.materialmerger.gles"
    },
    {
      "mesh": 0,
      "name": "Object_2"
    },
    {
      "mesh": 1,
      "name": "Object_3"
    }
  ],
  "samplers": [
    {
      "magFilter": 9729,
      "minFilter": 9987,
      "wrapS": 10497,
      "wrapT": 10497
    }
  ],
  "scene": 0,
  "scenes": [
    {
      "name": "Sketchfab_Scene",
      "nodes": [
        0
      ]
    }
  ],
  "textures": [
    {
      "sampler": 0,
      "source": 0
    }
  ]
}
