{
  "accessors": [
    {
      "bufferView": 2,
      "componentType": 5126,
      "count": 65532,
      "max": [
        12.85545539855957,
        -0.9148679971694946,
        8.554221153259277
      ],
      "min": [
        1.7148350477218628,
        -12.543290138244629,
        -2.6932690143585205
      ],
      "type": "VEC3"
    },
    {
      "bufferView": 2,
      "byteOffset": 786384,
      "componentType": 5126,
      "count": 65532,
      "max": [
        0.9999884366989136,
        0.9999936819076538,
        0.999987006187439
      ],
      "min": [
        -0.999987006187439,
        -0.9999890327453613,
        -0.9999936819076538
      ],
      "type": "VEC3"
    },
    {
      "bufferView": 1,
      "componentType": 5126,
      "count": 65532,
      "max": [
        0.9846220016479492,
        0.47238200902938843
      ],
      "min": [
        0.01537800021469593,
        0.0
      ],
      "type": "VEC2"
    },
    {
      "bufferView": 0,
      "componentType": 5125,
      "count": 365334,
      "type": "SCALAR"
    },
    {
      "bufferView": 2,
      "byteOffset": 1572768,
      "componentType": 5126,
      "count": 31136,
      "max": [
        12.702007293701172,
        -0.8572080135345459,
        8.709754943847656
      ],
      "min": [
        1.3259340524673462,
        -12.55211353302002,
        -3.00026798248291
      ],
      "type": "VEC3"
    },
    {
      "bufferView": 2,
      "byteOffset": 1946400,
      "componentType": 5126,
      "count": 31136,
      "max": [
        0.99998939037323,
        0.9998754858970642,
        0.9998579621315002
      ],
      "min": [
        -0.9999819993972778,
        -0.9999707937240601,
        -0.9998948574066162
      ],
      "type": "VEC3"
    },
    {
      "bufferView": 1,
      "byteOffset": 524256,
      "componentType": 5126,
      "count": 31136,
      "max": [
        0.9845799803733826,
        0.4699220061302185
      ],
      "min": [
        0.015421000309288502,
        0.002460000105202198
      ],
      "type": "VEC2"
    },
    {
      "bufferView": 0,
      "byteOffset": 1461336,
      "componentType": 5125,
      "count": 157674,
      "type": "SCALAR"
    }
  ],
  "asset": {
    "extras": {
      "author": "kirillsolovev (https://sketchfab.com/kirillsolovev)",
      "license": "CC-BY-4.0 (http://creativecommons.org/licenses/by/4.0/)",
      "source": "https://sketchfab.com/3d-models/coronavirus-4f73707e154e46af982935f2a7937af2",
      "title": "Coronavirus"
    },
    "generator": "Sketchfab-12.64.0",
    "version": "2.0"
  },
  "bufferViews": [
    {
      "buffer": 0,
      "byteLength": 2092032,
      "name": "floatBufferViews",
      "target": 34963
    },
    {
      "buffer": 0,
      "byteLength": 773344,
      "byteOffset": 2092032,
      "byteStride": 8,
      "name": "floatBufferViews",
      "target": 34962
    },
    {
      "buffer": 0,
      "byteLength": 2320032,
      "byteOffset": 2865376,
      "byteStride": 12,
      "name": "floatBufferViews",
      "target": 34962
    }
  ],
  "buffers": [
    {
      "byteLength": 5185408,
      "uri": "scene.bin"
    }
  ],
  "extensionsRequired": [
    "KHR_materials_pbrSpecularGlossiness"
  ],
  "extensionsUsed": [
    "KHR_materials_pbrSpecularGlossiness"
  ],
  "materials": [
    {
      "doubleSided": true,
      "extensions": {
        "KHR_materials_pbrSpecularGlossiness": {
          "diffuseFactor": [
            0.733422256097561,
            0.050868068058462876,
            0.050868068058462876,
            1.0
          ],
          "glossinessFactor": 1.0,
          "specularFactor": [
            0.013910060975609756,
            0.013910060975609756,
            0.013910060975609756
          ]
        }
      },
      "name": "Material.001"
    }
  ],
  "meshes": [
    {
      "name": "Object_0",
      "primitives": [
        {
          "attributes": {
            "NORMAL": 1,
            "POSITION": 0,
            "TEXCOORD_0": 2
          },
          "indices": 3,
          "material": 0,
          "mode": 4
        }
      ]
    },
    {
      "name": "Object_1",
      "primitives": [
        {
          "attributes": {
            "NORMAL": 5,
            "POSITION": 4,
            "TEXCOORD_0": 6
          },
          "indices": 7,
          "material": 0,
          "mode": 4
        }
      ]
    }
  ],
  "nodes": [
    {
      "children": [
        1
      ],
      "matrix": [
        1.0,
        0.0,
        0.0,
        0.0,
        0.0,
        2.220446049250313e-16,
        -1.0,
        0.0,
        0.0,
        1.0,
        2.220446049250313e-16,
        0.0,
        0.0,
        0.0,
        0.0,
        1.0
      ],
      "name": "Sketchfab_model"
    },
    {
      "children": [
        2,
        3
      ],
      "name": "sketchfab_model.obj.cleaner.materialmerger.gles"
    },
    {
      "mesh": 0,
      "name": "Object_2"
    },
    {
      "mesh": 1,
      "name": "Object_3"
    }
  ],
  "scene": 0,
  "scenes": [
    {
      "name": "Sketchfab_Scene",
      "nodes": [
        0
      ]
    }
  ]
}
