{
  "accessors": [
    {
      "bufferView": 2,
      "componentType": 5126,
      "count": 65532,
      "max": [
        45.90403747558594,
        46.086570739746094,
        44.684967041015625
      ],
      "min": [
        -45.976593017578125,
        -46.086570739746094,
        -45.46879577636719
      ],
      "type": "VEC3"
    },
    {
      "bufferView": 2,
      "byteOffset": 786384,
      "componentType": 5126,
      "count": 65532,
      "max": [
        0.9999959468841553,
        0.9999738931655884,
        0.9999862909317017
      ],
      "min": [
        -0.9999959468841553,
        -0.9999841451644897,
        -0.9999213218688965
      ],
      "type": "VEC3"
    },
    {
      "bufferView": 3,
      "componentType": 5126,
      "count": 65532,
      "max": [
        0.9999918341636658,
        0.9999975562095642,
        0.999874472618103,
        1.0
      ],
      "min": [
        -0.9999248385429382,
        -0.9999975562095642,
        -0.9999426007270813,
        1.0
      ],
      "type": "VEC4"
    },
    {
      "bufferView": 1,
      "componentType": 5126,
      "count": 65532,
      "max": [
        0.9971519708633423,
        0.9926609992980957
      ],
      "min": [
        0.0028440000023692846,
        0.0028490000404417515
      ],
      "type": "VEC2"
    },
    {
      "bufferView": 0,
      "componentType": 5125,
      "count": 143484,
      "type": "SCALAR"
    },
    {
      "bufferView": 2,
      "byteOffset": 1572768,
      "componentType": 5126,
      "count": 7544,
      "max": [
        37.20042037963867,
        39.242576599121094,
        39.866329193115234
      ],
      "min": [
        -33.15970993041992,
        14.30041217803955,
        -35.73482894897461
      ],
      "type": "VEC3"
    },
    {
      "bufferView": 2,
      "byteOffset": 1663296,
      "componentType": 5126,
      "count": 7544,
      "max": [
        0.9995062947273254,
        0.9997681975364685,
        0.9999860525131226
      ],
      "min": [
        -0.9998252987861633,
        -0.9997647404670715,
        -0.9996053576469421
      ],
      "type": "VEC3"
    },
    {
      "bufferView": 3,
      "byteOffset": 1048512,
      "componentType": 5126,
      "count": 7544,
      "max": [
        0.9999138712882996,
        0.9996718168258667,
        0.9987922310829163,
        1.0
      ],
      "min": [
        -0.999836802482605,
        -0.9997270703315735,
        -0.9994789958000183,
        1.0
      ],
      "type": "VEC4"
    },
    {
      "bufferView": 1,
      "byteOffset": 524256,
      "componentType": 5126,
      "count": 7544,
      "max": [
        0.9971519708633423,
        0.9926609992980957
      ],
      "min": [
        0.0028440000023692846,
        0.0028510000556707382
      ],
      "type": "VEC2"
    },
    {
      "bufferView": 0,
      "byteOffset": 573936,
      "componentType": 5125,
      "count": 15360,
      "type": "SCALAR"
    },
    {
      "bufferView": 2,
      "byteOffset": 1753824,
      "componentType": 5126,
      "count": 9149,
      "max": [
        35.51630783081055,
        35.516273498535156,
        35.61907196044922
      ],
      "min": [
        -35.51628875732422,
        -35.51633834838867,
        -35.61907196044922
      ],
      "type": "VEC3"
    },
    {
      "bufferView": 2,
      "byteOffset": 1863612,
      "componentType": 5126,
      "count": 9149,
      "max": [
        1.0,
        1.0,
        1.0
      ],
      "min": [
        -1.0,
        -1.0,
        -1.0
      ],
      "type": "VEC3"
    },
    {
      "bufferView": 3,
      "byteOffset": 1169216,
      "componentType": 5126,
      "count": 9149,
      "max": [
        1.0,
        1.0,
        0.0773220881819725,
        1.0
      ],
      "min": [
        -1.0,
        -1.0,
        -0.07317478209733963,
        1.0
      ],
      "type": "VEC4"
    },
    {
      "bufferView": 1,
      "byteOffset": 584608,
      "componentType": 5126,
      "count": 9149,
      "max": [
        1.0000009536743164,
        1.0
      ],
      "min": [
        0.0,
        0.0
      ],
      "type": "VEC2"
    },
    {
      "bufferView": 0,
      "byteOffset": 635376,
      "componentType": 5125,
      "count": 53088,
      "type": "SCALAR"
    }
  ],
  "asset": {
    "extras": {
      "author": "Teliri (https://sketchfab.com/Teliri)",
      "license": "CC-BY-4.0 (http://creativecommons.org/licenses/by/4.0/)",
      "source": "https://sketchfab.com/3d-models/coronavirus-b28f63adc5f04a2aab27e1d7293eba0b",
      "title": "Coronavirus"
    },
    "generator": "Sketchfab-12.66.0",
    "version": "2.0"
  },
  "bufferViews": [
    {
      "buffer": 0,
      "byteLength": 847728,
      "name": "floatBufferViews",
      "target": 34963
    },
    {
      "buffer": 0,
      "byteLength": 657800,
      "byteOffset": 847728,
      "byteStride": 8,
      "name": "floatBufferViews",
      "target": 34962
    },
    {
      "buffer": 0,
      "byteLength": 1973400,
      "byteOffset": 1505528,
      "byteStride": 12,
      "name": "floatBufferViews",
      "target": 34962
    },
    {
      "buffer": 0,
      "byteLength": 1315600,
      "byteOffset": 3478928,
      "byteStride": 16,
      "name": "floatBufferViews",
      "target": 34962
    }
  ],
  "buffers": [
    {
      "byteLength": 4794528,
      "uri": "scene.bin"
    }
  ],
  "extensionsRequired": [
    "KHR_materials_pbrSpecularGlossiness"
  ],
  "extensionsUsed": [
    "KHR_materials_pbrSpecularGlossiness"
  ],
  "images": [
    {
      "uri": "textures/Parts_diffuse.png"
    },
    {
      "uri": "textures/Parts_specularGlossiness.png"
    },
    {
      "uri": "textures/Parts_normal.png"
    },
    {
      "uri": "textures/Parts_occlusion.png"
    },
    {
      "uri": "textures/SphereLow_diffuse.png"
    },
    {
      "uri": "textures/SphereLow_specularGlossiness.png"
    },
    {
      "uri": "textures/SphereLow_normal.png"
    },
    {
      "uri": "textures/SphereLow_occlusion.png"
    }
  ],
  "materials": [
    {
      "doubleSided": true,
      "emissiveFactor": [
        0.33228556315104163,
        0.33228556315104163,
        0.33228556315104163
      ],
      "emissiveTexture": {
        "index": 0
      },
      "extensions": {
        "KHR_materials_pbrSpecularGlossiness": {
          "diffuseFactor": [
            1.0,
            1.0,
            1.0,
            1.0
          ],
          "diffuseTexture": {
            "index": 0
          },
          "glossinessFactor": 1.0,
          "specularFactor": [
            0.2156184934220224,
            0.2156184934220224,
            0.2156184934220224
          ],
          "specularGlossinessTexture": {
            "index": 1
          }
        }
      },
      "name": "Parts",
      "normalTexture": {
        "index": 2
      },
      "occlusionTexture": {
        "index": 3
      }
    },
    {
      "doubleSided": true,
      "emissiveFactor": [
        0.4580717266730543,
        0.4580717266730543,
        0.4580717266730543
      ],
      "emissiveTexture": {
        "index": 4
      },
      "extensions": {
        "KHR_materials_pbrSpecularGlossiness": {
          "diffuseFactor": [
            1.0,
            1.0,
            1.0,
            1.0
          ],
          "diffuseTexture": {
            "index": 4
          },
          "glossinessFactor": 1.0,
          "specularFactor": [
            1.0,
            1.0,
            1.0
          ],
          "specularGlossinessTexture": {
            "index": 5
          }
        }
      },
      "name": "SphereLow",
      "normalTexture": {
        "index": 6
      },
      "occlusionTexture": {
        "index": 7
      }
    }
  ],
  "meshes": [
    {
      "name": "Object_0",
      "primitives": [
        {
          "attributes": {
            "NORMAL": 1,
            "POSITION": 0,
            "TANGENT": 2,
            "TEXCOORD_0": 3
          },
          "indices": 4,
          "material": 0,
          "mode": 4
        }
      ]
    },
    {
      "name": "Object_1",
      "primitives": [
        {
          "attributes": {
            "NORMAL": 6,
            "POSITION": 5,
            "TANGENT": 7,
            "TEXCOORD_0": 8
          },
          "indices": 9,
          "material": 0,
          "mode": 4
        }
      ]
    },
    {
      "name": "Object_2",
      "primitives": [
        {
          "attributes": {
            "NORMAL": 11,
            "POSITION": 10,
            "TANGENT": 12,
            "TEXCOORD_0": 13
          },
          "indices": 14,
          "material": 1,
          "mode": 4
        }
      ]
    }
  ],
  "nodes": [
    {
      "children": [
        1
      ],
      "matrix": [
        1.0,
        0.0,
        0.0,
        0.0,
        0.0,
        2.220446049250313e-16,
        -1.0,
        0.0,
        0.0,
        1.0,
        2.220446049250313e-16,
        0.0,
        0.0,
        0.0,
        0.0,
        1.0
      ],
      "name": "Sketchfab_model"
    },
    {
      "children": [
        2,
        3,
        4
      ],
      "name": "VirusComplete.obj.cleaner.materialmerger.gles"
    },
    {
      "mesh": 0,
      "name": "Object_2"
    },
    {
      "mesh": 1,
      "name": "Object_3"
    },
    {
      "mesh": 2,
      "name": "Object_4"
    }
  ],
  "samplers": [
    {
      "magFilter": 9729,
      "minFilter": 9987,
      "wrapS": 10497,
      "wrapT": 10497
    }
  ],
  "scene": 0,
  "scenes": [
    {
      "name": "Sketchfab_Scene",
      "nodes": [
        0
      ]
    }
  ],
  "textures": [
    {
      "sampler": 0,
      "source": 0
    },
    {
      "sampler": 0,
      "source": 1
    },
    {
      "sampler": 0,
      "source": 2
    },
    {
      "sampler": 0,
      "source": 3
    },
    {
      "sampler": 0,
      "source": 4
    },
    {
      "sampler": 0,
      "source": 5
    },
    {
      "sampler": 0,
      "source": 6
    },
    {
      "sampler": 0,
      "source": 7
    }
  ]
}
