{"extensionsUsed" : ["KHR_materials_pbrSpecularGlossiness"], "accessors" : [{"bufferView" : 0, "byteOffset" : 0, "componentType" : 5123, "count" : 36, "type" : "SCALAR", "max" : [29], "min" : [0]}, {"bufferView" : 1, "byteOffset" : 0, "componentType" : 5126, "count" : 30, "type" : "VEC3", "max" : [429.761474609375, 58.60279846191406, 58.60279846191406], "min" : [-429.761474609375, -58.60279846191406, -58.60279846191406], "name" : "POSITION"}, {"bufferView" : 1, "byteOffset" : 12, "componentType" : 5126, "count" : 30, "type" : "VEC3", "max" : [1.0000044107437134, 1.0000044107437134, 1.0000044107437134], "min" : [-1.0000044107437134, -1.0000044107437134, -1.0000044107437134], "name" : "NORMAL"}, {"bufferView" : 0, "byteOffset" : 72, "componentType" : 5123, "count" : 36, "type" : "SCALAR", "max" : [29], "min" : [0]}, {"bufferView" : 2, "byteOffset" : 0, "componentType" : 5126, "count" : 30, "type" : "VEC3", "max" : [71.55685424804688, 177.68870544433594, 71.55685424804688], "min" : [-71.55685424804688, -177.68870544433594, -71.55685424804688], "name" : "POSITION"}, {"bufferView" : 2, "byteOffset" : 12, "componentType" : 5126, "count" : 30, "type" : "VEC3", "max" : [1.0000044107437134, 1.0000044107437134, 1.0000044107437134], "min" : [-1.0000044107437134, -1.0000044107437134, -1.0000044107437134], "name" : "NORMAL"}, {"bufferView" : 2, "byteOffset" : 24, "componentType" : 5126, "count" : 30, "type" : "VEC2", "max" : [0.7237920165061951, 0.999828577041626], "min" : [0.0001118779182434082, 0.00017139315605163574], "name" : "TEXCOORD_0"}, {"bufferView" : 2, "byteOffset" : 32, "componentType" : 5126, "count" : 30, "type" : "VEC3", "max" : [1, 1, 1], "min" : [1, 1, 1], "name" : "COLOR_0"}, {"bufferView" : 0, "byteOffset" : 144, "componentType" : 5123, "count" : 36, "type" : "SCALAR", "max" : [29], "min" : [0]}, {"bufferView" : 3, "byteOffset" : 0, "componentType" : 5126, "count" : 30, "type" : "VEC3", "max" : [71.55685424804688, 177.68870544433594, 71.55685424804688], "min" : [-71.55685424804688, -177.68870544433594, -71.55685424804688], "name" : "POSITION"}, {"bufferView" : 3, "byteOffset" : 12, "componentType" : 5126, "count" : 30, "type" : "VEC3", "max" : [1.0000044107437134, 1.0000044107437134, 1.0000044107437134], "min" : [-1.0000044107437134, -1.0000044107437134, -1.0000044107437134], "name" : "NORMAL"}, {"bufferView" : 3, "byteOffset" : 24, "componentType" : 5126, "count" : 30, "type" : "VEC2", "max" : [0.7237920165061951, 0.999828577041626], "min" : [0.0001118779182434082, 0.00017139315605163574], "name" : "TEXCOORD_0"}, {"bufferView" : 3, "byteOffset" : 32, "componentType" : 5126, "count" : 30, "type" : "VEC3", "max" : [1, 1, 1], "min" : [1, 1, 1], "name" : "COLOR_0"}, {"bufferView" : 0, "byteOffset" : 216, "componentType" : 5123, "count" : 36, "type" : "SCALAR", "max" : [29], "min" : [0]}, {"bufferView" : 4, "byteOffset" : 0, "componentType" : 5126, "count" : 30, "type" : "VEC3", "max" : [71.55685424804688, 177.68870544433594, 71.55685424804688], "min" : [-71.55685424804688, -177.68870544433594, -71.55685424804688], "name" : "POSITION"}, {"bufferView" : 4, "byteOffset" : 12, "componentType" : 5126, "count" : 30, "type" : "VEC3", "max" : [1.0000044107437134, 1.0000044107437134, 1.0000044107437134], "min" : [-1.0000044107437134, -1.0000044107437134, -1.0000044107437134], "name" : "NORMAL"}, {"bufferView" : 4, "byteOffset" : 24, "componentType" : 5126, "count" : 30, "type" : "VEC2", "max" : [0.7237920165061951, 0.999828577041626], "min" : [0.0001118779182434082, 0.00017139315605163574], "name" : "TEXCOORD_0"}, {"bufferView" : 4, "byteOffset" : 32, "componentType" : 5126, "count" : 30, "type" : "VEC3", "max" : [1, 1, 1], "min" : [1, 1, 1], "name" : "COLOR_0"}, {"bufferView" : 0, "byteOffset" : 288, "componentType" : 5123, "count" : 2520, "type" : "SCALAR", "max" : [2225], "min" : [0]}, {"bufferView" : 5, "byteOffset" : 0, "componentType" : 5126, "count" : 2226, "type" : "VEC3", "max" : [108.54826354980469, 34.08644485473633, 0], "min" : [1.9404492378234863, -0.58447265625, -15], "name" : "POSITION"}, {"bufferView" : 5, "byteOffset" : 12, "componentType" : 5126, "count" : 2226, "type" : "VEC3", "max" : [1.0000044107437134, 1.0000044107437134, 1.0000044107437134], "min" : [-1.0000044107437134, -1.0000044107437134, -1.0000044107437134], "name" : "NORMAL"}, {"bufferView" : 0, "byteOffset" : 5328, "componentType" : 5123, "count" : 2424, "type" : "SCALAR", "max" : [2143], "min" : [0]}, {"bufferView" : 6, "byteOffset" : 0, "componentType" : 5126, "count" : 2144, "type" : "VEC3", "max" : [102.07230377197266, 34.273475646972656, 0], "min" : [1.9404492378234863, -0.58447265625, -15], "name" : "POSITION"}, {"bufferView" : 6, "byteOffset" : 12, "componentType" : 5126, "count" : 2144, "type" : "VEC3", "max" : [1.0000044107437134, 1.0000044107437134, 1.0000044107437134], "min" : [-1.0000044107437134, -1.0000044107437134, -1.0000044107437134], "name" : "NORMAL"}, {"bufferView" : 0, "byteOffset" : 10176, "componentType" : 5123, "count" : 3060, "type" : "SCALAR", "max" : [2709], "min" : [0]}, {"bufferView" : 7, "byteOffset" : 0, "componentType" : 5126, "count" : 2710, "type" : "VEC3", "max" : [106.9117431640625, 34.08644485473633, 0], "min" : [1.9404492378234863, -0.58447265625, -15], "name" : "POSITION"}, {"bufferView" : 7, "byteOffset" : 12, "componentType" : 5126, "count" : 2710, "type" : "VEC3", "max" : [1.0000044107437134, 1.0000044107437134, 1.0000044107437134], "min" : [-1.0000044107437134, -1.0000044107437134, -1.0000044107437134], "name" : "NORMAL"}, {"bufferView" : 0, "byteOffset" : 16296, "componentType" : 5123, "count" : 3000, "type" : "SCALAR", "max" : [2631], "min" : [0]}, {"bufferView" : 8, "byteOffset" : 0, "componentType" : 5126, "count" : 2632, "type" : "VEC3", "max" : [97.11598205566406, 34.08644485473633, 0], "min" : [1.8703125715255737, -0.5377148389816284, -15], "name" : "POSITION"}, {"bufferView" : 8, "byteOffset" : 12, "componentType" : 5126, "count" : 2632, "type" : "VEC3", "max" : [1.0000044107437134, 1.0000044107437134, 1.0000044107437134], "min" : [-1.0000044107437134, -1.0000044107437134, -1.0000044107437134], "name" : "NORMAL"}, {"bufferView" : 0, "byteOffset" : 22296, "componentType" : 5123, "count" : 2112, "type" : "SCALAR", "max" : [1856], "min" : [0]}, {"bufferView" : 9, "byteOffset" : 0, "componentType" : 5126, "count" : 1857, "type" : "VEC3", "max" : [124.65633392333984, 34.08644485473633, 0], "min" : [1.9404492378234863, -0.58447265625, -15], "name" : "POSITION"}, {"bufferView" : 9, "byteOffset" : 12, "componentType" : 5126, "count" : 1857, "type" : "VEC3", "max" : [1.0000044107437134, 1.0000044107437134, 1.0000044107437134], "min" : [-1.0000044107437134, -1.0000044107437134, -1.0000044107437134], "name" : "NORMAL"}, {"bufferView" : 0, "byteOffset" : 26520, "componentType" : 5123, "count" : 1596, "type" : "SCALAR", "max" : [1398], "min" : [0]}, {"bufferView" : 10, "byteOffset" : 0, "componentType" : 5126, "count" : 1399, "type" : "VEC3", "max" : [124.65633392333984, 34.273475646972656, 0], "min" : [2.7353320121765137, -0.58447265625, -15], "name" : "POSITION"}, {"bufferView" : 10, "byteOffset" : 12, "componentType" : 5126, "count" : 1399, "type" : "VEC3", "max" : [1.0000044107437134, 1.0000044107437134, 1.0000044107437134], "min" : [-1.0000044107437134, -1.0000044107437134, -1.0000044107437134], "name" : "NORMAL"}], "asset" : {"generator" : "Aspose.3D 22.7", "version" : "2.0"}, "buffers" : [{"uri" : "data:application/octet-stream;base64,", "byteLength" : 388460}], "bufferViews" : [{"buffer" : 0, "byteOffset" : 0, "byteLength" : 29712, "target" : 34963}, {"buffer" : 0, "byteOffset" : 29716, "byteLength" : 864, "byteStride" : 24, "target" : 34962}, {"buffer" : 0, "byteOffset" : 30584, "byteLength" : 1584, "byteStride" : 44, "target" : 34962}, {"buffer" : 0, "byteOffset" : 32172, "byteLength" : 1584, "byteStride" : 44, "target" : 34962}, {"buffer" : 0, "byteOffset" : 33760, "byteLength" : 1584, "byteStride" : 44, "target" : 34962}, {"buffer" : 0, "byteOffset" : 35348, "byteLength" : 60480, "byteStride" : 24, "target" : 34962}, {"buffer" : 0, "byteOffset" : 95832, "byteLength" : 58176, "byteStride" : 24, "target" : 34962}, {"buffer" : 0, "byteOffset" : 154012, "byteLength" : 73440, "byteStride" : 24, "target" : 34962}, {"buffer" : 0, "byteOffset" : 227456, "byteLength" : 72000, "byteStride" : 24, "target" : 34962}, {"buffer" : 0, "byteOffset" : 299460, "byteLength" : 50688, "byteStride" : 24, "target" : 34962}, {"buffer" : 0, "byteOffset" : 350152, "byteLength" : 38304, "byteStride" : 24, "target" : 34962}], "images" : [{"uri" : "data:image/png;base64,"}, {"uri" : "data:image/png;base64,"}, {"uri" : "data:image/png;base64,"}, {"uri" : "data:image/png;base64,"}, {"uri" : "data:image/png;base64,"}, {"uri" : "data:image/png;base64,"}, {"uri" : "data:image/png;base64,"}, {"uri" : "data:image/png;base64,"}, {"uri" : "data:image/png;base64,"}, {"uri" : "data:image/png;base64,"}, {"uri" : "data:image/png;base64,"}, {"uri" : "data:image/png;base64,"}, {"uri" : "data:image/png;base64,"}, {"uri" : "data:image/png;base64,"}], "materials" : [{"name" : "", "extensions" : {"KHR_materials_pbrSpecularGlossiness" : {"diffuseTexture" : {"index" : 4}, "specularGlossinessTexture" : {"index" : 1}}}, "pbrMetallicRoughness" : {"baseColorFactor" : [1, 1, 1, 1], "baseColorTexture" : {"index" : 2, "texCoord" : 0}, "metallicFactor" : 1, "roughnessFactor" : 1, "metallicRoughnessTexture" : {"index" : 3, "texCoord" : 0}}, "emissiveFactor" : [0, 0, 0], "alphaMode" : "OPAQUE", "doubleSided" : true}, {"name" : "", "extensions" : {"KHR_materials_pbrSpecularGlossiness" : {"diffuseTexture" : {"index" : 7}, "specularGlossinessTexture" : {"index" : 8}}}, "pbrMetallicRoughness" : {"baseColorFactor" : [1, 1, 1, 1], "baseColorTexture" : {"index" : 6, "texCoord" : 0}, "metallicFactor" : 1, "roughnessFactor" : 1, "metallicRoughnessTexture" : {"index" : 7, "texCoord" : 0}}, "emissiveFactor" : [0, 0, 0], "alphaMode" : "OPAQUE", "doubleSided" : true}, {"name" : "", "extensions" : {"KHR_materials_pbrSpecularGlossiness" : {"diffuseTexture" : {"index" : 11}, "specularGlossinessTexture" : {"index" : 8}}}, "pbrMetallicRoughness" : {"baseColorFactor" : [1, 1, 1, 1], "baseColorTexture" : {"index" : 9, "texCoord" : 0}, "metallicFactor" : 1, "roughnessFactor" : 1, "metallicRoughnessTexture" : {"index" : 10, "texCoord" : 0}}, "emissiveFactor" : [0, 0, 0], "alphaMode" : "OPAQUE", "doubleSided" : true}, {"name" : "", "extensions" : {"KHR_materials_pbrSpecularGlossiness" : {"diffuseTexture" : {"index" : 7}, "specularGlossinessTexture" : {"index" : 8}}}, "pbrMetallicRoughness" : {"baseColorFactor" : [1, 1, 1, 1], "baseColorTexture" : {"index" : 6, "texCoord" : 0}, "metallicFactor" : 1, "roughnessFactor" : 1, "metallicRoughnessTexture" : {"index" : 7, "texCoord" : 0}}, "emissiveFactor" : [0, 0, 0], "alphaMode" : "OPAQUE", "doubleSided" : true}, {"name" : "", "extensions" : {"KHR_materials_pbrSpecularGlossiness" : {"diffuseTexture" : {"index" : 0}, "specularGlossinessTexture" : {"index" : 1}}}, "pbrMetallicRoughness" : {"baseColorFactor" : [1, 1, 1, 1], "baseColorTexture" : {"index" : 12, "texCoord" : 0}, "metallicFactor" : 1, "roughnessFactor" : 1, "metallicRoughnessTexture" : {"index" : 13, "texCoord" : 0}}, "emissiveFactor" : [0, 0, 0], "alphaMode" : "OPAQUE", "doubleSided" : true}, {"name" : "", "extensions" : {"KHR_materials_pbrSpecularGlossiness" : {"diffuseTexture" : {"index" : 0}, "specularGlossinessTexture" : {"index" : 1}}}, "pbrMetallicRoughness" : {"baseColorFactor" : [1, 1, 1, 1], "baseColorTexture" : {"index" : 12, "texCoord" : 0}, "metallicFactor" : 1, "roughnessFactor" : 1, "metallicRoughnessTexture" : {"index" : 13, "texCoord" : 0}}, "emissiveFactor" : [0, 0, 0], "alphaMode" : "OPAQUE", "doubleSided" : true}, {"name" : "", "extensions" : {"KHR_materials_pbrSpecularGlossiness" : {"diffuseTexture" : {"index" : 0}, "specularGlossinessTexture" : {"index" : 1}}}, "pbrMetallicRoughness" : {"baseColorFactor" : [1, 1, 1, 1], "baseColorTexture" : {"index" : 12, "texCoord" : 0}, "metallicFactor" : 1, "roughnessFactor" : 1, "metallicRoughnessTexture" : {"index" : 13, "texCoord" : 0}}, "emissiveFactor" : [0, 0, 0], "alphaMode" : "OPAQUE", "doubleSided" : true}, {"name" : "", "extensions" : {"KHR_materials_pbrSpecularGlossiness" : {"diffuseTexture" : {"index" : 0}, "specularGlossinessTexture" : {"index" : 1}}}, "pbrMetallicRoughness" : {"baseColorFactor" : [1, 1, 1, 1], "baseColorTexture" : {"index" : 12, "texCoord" : 0}, "metallicFactor" : 1, "roughnessFactor" : 1, "metallicRoughnessTexture" : {"index" : 13, "texCoord" : 0}}, "emissiveFactor" : [0, 0, 0], "alphaMode" : "OPAQUE", "doubleSided" : true}, {"name" : "", "extensions" : {"KHR_materials_pbrSpecularGlossiness" : {"diffuseTexture" : {"index" : 0}, "specularGlossinessTexture" : {"index" : 1}}}, "pbrMetallicRoughness" : {"baseColorFactor" : [1, 1, 1, 1], "baseColorTexture" : {"index" : 12, "texCoord" : 0}, "metallicFactor" : 1, "roughnessFactor" : 1, "metallicRoughnessTexture" : {"index" : 13, "texCoord" : 0}}, "emissiveFactor" : [0, 0, 0], "alphaMode" : "OPAQUE", "doubleSided" : true}, {"name" : "", "extensions" : {"KHR_materials_pbrSpecularGlossiness" : {"diffuseTexture" : {"index" : 0}, "specularGlossinessTexture" : {"index" : 1}}}, "pbrMetallicRoughness" : {"baseColorFactor" : [1, 1, 1, 1], "baseColorTexture" : {"index" : 12, "texCoord" : 0}, "metallicFactor" : 1, "roughnessFactor" : 1, "metallicRoughnessTexture" : {"index" : 13, "texCoord" : 0}}, "emissiveFactor" : [0, 0, 0], "alphaMode" : "OPAQUE", "doubleSided" : true}], "meshes" : [{"primitives" : [{"attributes" : {"POSITION" : 1, "NORMAL" : 2}, "indices" : 0, "material" : 0, "mode" : 4}]}, {"primitives" : [{"attributes" : {"POSITION" : 4, "NORMAL" : 5, "TEXCOORD_0" : 6, "COLOR_0" : 7}, "indices" : 3, "material" : 1, "mode" : 4}]}, {"primitives" : [{"attributes" : {"POSITION" : 9, "NORMAL" : 10, "TEXCOORD_0" : 11, "COLOR_0" : 12}, "indices" : 8, "material" : 2, "mode" : 4}]}, {"primitives" : [{"attributes" : {"POSITION" : 14, "NORMAL" : 15, "TEXCOORD_0" : 16, "COLOR_0" : 17}, "indices" : 13, "material" : 3, "mode" : 4}]}, {"primitives" : [{"attributes" : {"POSITION" : 19, "NORMAL" : 20}, "indices" : 18, "material" : 4, "mode" : 4}]}, {"primitives" : [{"attributes" : {"POSITION" : 22, "NORMAL" : 23}, "indices" : 21, "material" : 5, "mode" : 4}]}, {"primitives" : [{"attributes" : {"POSITION" : 25, "NORMAL" : 26}, "indices" : 24, "material" : 6, "mode" : 4}]}, {"primitives" : [{"attributes" : {"POSITION" : 28, "NORMAL" : 29}, "indices" : 27, "material" : 7, "mode" : 4}]}, {"primitives" : [{"attributes" : {"POSITION" : 31, "NORMAL" : 32}, "indices" : 30, "material" : 8, "mode" : 4}]}, {"primitives" : [{"attributes" : {"POSITION" : 34, "NORMAL" : 35}, "indices" : 33, "material" : 9, "mode" : 4}]}], "nodes" : [{"matrix" : [0.0010000000474974513, 0, 0, 0, 0, 0.0010000000474974513, 0, 0, 0, 0, 0.0013316847616806626, 0, -0.007553284056484699, -0.19163136184215546, 0.07304088026285172, 1], "mesh" : 0, "name" : "Node #0"}, {"matrix" : [0.0013570078881457448, 0, 0, 0, 0, 0.0010000000474974513, 0, 0, 0, 0, 0.0007443490321747959, 0, -0.014028259553015232, 0.04466015845537186, 0.07546338438987732, 1], "mesh" : 1, "name" : "Node #1"}, {"matrix" : [0.0012421401916071773, 0, 0, 0, 0, 0.0003168191760778427, 0, 0, 0, 0, 0.0007896469323895872, 0, -0.2690366208553314, -0.07673337310552597, 0.07505224645137787, 1], "mesh" : 2, "name" : "Node #2"}, {"matrix" : [0.0013570078881457448, 0, 0, 0, 0, 0.001553299487568438, 0, 0, 0, 0, 0.0007443490321747959, 0, 0.2518051862716675, 0.14297524094581604, 0.07546289265155792, 1], "mesh" : 3, "name" : "Node #3"}, {"matrix" : [1, 0, 0, 0, 0, 1, 0, 0, 0, 0, 1, 0, -55.24435806274414, -16.750986099243164, 7.5, 1], "mesh" : 4, "name" : "Node #4"}, {"children" : [4], "matrix" : [0.001250000088475609, -2.980232804983299E-10, -2.1175825180192024E-24, 0, 2.980232804983299E-10, 0.001250000088475609, -1.262177567783847E-30, 0, 2.1175825180194433E-24, 7.573064925220562E-31, 0.0012500000884756446, 0, -0.26761987805366516, -0.18975147604942322, 0.1604563295841217, 1], "name" : "node_id68"}, {"matrix" : [1, 0, 0, 0, 0, 1, 0, 0, 0, 0, 1, 0, -52.006378173828125, -16.844501495361328, 7.5, 1], "mesh" : 5, "name" : "Node #5"}, {"children" : [6], "matrix" : [0.001250000088475609, -2.980232804983299E-10, -3.552713930263306E-17, 0, 2.980232804983299E-10, 0.001250000088475609, -1.2705495612986952E-23, 0, 3.552713930263508E-17, 4.2351645311676306E-24, 0.0012500000884756446, 0, -0.017277712002396584, -0.18653275072574615, 0.1604563295841217, 1], "name" : "node_id91"}, {"matrix" : [1, 0, 0, 0, 0, 1, 0, 0, 0, 0, 1, 0, -54.42609786987305, -16.750986099243164, 7.5, 1], "mesh" : 6, "name" : "Node #6"}, {"children" : [8], "matrix" : [0.001250000088475609, -2.980232804983299E-10, -3.552713930263306E-17, 0, 2.980232804983299E-10, 0.001250000088475609, -1.2705495612986952E-23, 0, 3.552713930263508E-17, 4.2351645311676306E-24, 0.0012500000884756446, 0, 0.24546006321907043, -0.18060371279716492, 0.1604563295841217, 1], "name" : "node_id99"}, {"matrix" : [1, 0, 0, 0, 0, 1, 0, 0, 0, 0, 1, 0, -49.49314880371094, -16.774364471435547, 7.5, 1], "mesh" : 7, "name" : "Node #7"}, {"children" : [10], "matrix" : [0.001250000088475609, -2.980232804983299E-10, -3.552713930263306E-17, 0, 2.980232804983299E-10, 0.001250000088475609, -1.2705495612986952E-23, 0, 3.552713930263508E-17, 4.2351645311676306E-24, 0.0012500000884756446, 0, -0.26849743723869324, -0.07986777275800705, 0.1409319043159485, 1], "name" : "node_id108"}, {"matrix" : [1, 0, 0, 0, 0, 1, 0, 0, 0, 0, 1, 0, -63.29839324951172, -16.750986099243164, 7.5, 1], "mesh" : 8, "name" : "Node #8"}, {"children" : [12], "matrix" : [0.001250000088475609, -2.980232804983299E-10, -3.552713930263306E-17, 0, 2.980232804983299E-10, 0.001250000088475609, -1.2705495612986952E-23, 0, 3.552713930263508E-17, 4.2351645311676306E-24, 0.0012500000884756446, 0, -0.017637362703680992, 0.039297547191381454, 0.13810166716575623, 1], "name" : "node_id118"}, {"matrix" : [1, 0, 0, 0, 0, 1, 0, 0, 0, 0, 1, 0, -63.695831298828125, -16.844501495361328, 7.5, 1], "mesh" : 9, "name" : "Node #9"}, {"children" : [14], "matrix" : [0.001250000088475609, -2.980232804983299E-10, -3.552713930263306E-17, 0, 2.980232804983299E-10, 0.001250000088475609, -1.2705495612986952E-23, 0, 3.552713930263508E-17, 4.2351645311676306E-24, 0.0012500000884756446, 0, 0.24392183125019073, 0.13845989108085632, 0.13810117542743683, 1], "name" : "node_id126"}, {"children" : [0, 1, 2, 3, 5, 7, 9, 11, 13, 15], "name" : "root"}], "samplers" : [{"magFilter" : 9728, "minFilter" : 9985, "wrapS" : 10497, "wrapT" : 10497}, {"magFilter" : 9728, "minFilter" : 9985, "wrapS" : 10497, "wrapT" : 10497}, {"magFilter" : 9728, "minFilter" : 9985, "wrapS" : 10497, "wrapT" : 10497}, {"magFilter" : 9728, "minFilter" : 9985, "wrapS" : 10497, "wrapT" : 10497}, {"magFilter" : 9728, "minFilter" : 9985, "wrapS" : 10497, "wrapT" : 10497}, {"magFilter" : 9728, "minFilter" : 9985, "wrapS" : 10497, "wrapT" : 10497}, {"magFilter" : 9728, "minFilter" : 9985, "wrapS" : 10497, "wrapT" : 10497}, {"magFilter" : 9728, "minFilter" : 9985, "wrapS" : 10497, "wrapT" : 10497}, {"magFilter" : 9728, "minFilter" : 9985, "wrapS" : 10497, "wrapT" : 10497}, {"magFilter" : 9728, "minFilter" : 9985, "wrapS" : 10497, "wrapT" : 10497}, {"magFilter" : 9728, "minFilter" : 9985, "wrapS" : 10497, "wrapT" : 10497}, {"magFilter" : 9728, "minFilter" : 9985, "wrapS" : 10497, "wrapT" : 10497}, {"magFilter" : 9728, "minFilter" : 9985, "wrapS" : 10497, "wrapT" : 10497}, {"magFilter" : 9728, "minFilter" : 9985, "wrapS" : 10497, "wrapT" : 10497}], "scene" : 0, "scenes" : [{"nodes" : [16]}], "textures" : [{"sampler" : 0, "source" : 0, "name" : ""}, {"sampler" : 1, "source" : 1, "name" : ""}, {"sampler" : 2, "source" : 2, "name" : ""}, {"sampler" : 3, "source" : 3, "name" : ""}, {"sampler" : 4, "source" : 4, "name" : ""}, {"sampler" : 5, "source" : 5, "name" : ""}, {"sampler" : 6, "source" : 6, "name" : ""}, {"sampler" : 7, "source" : 7, "name" : ""}, {"sampler" : 8, "source" : 8, "name" : ""}, {"sampler" : 9, "source" : 9, "name" : ""}, {"sampler" : 10, "source" : 10, "name" : ""}, {"sampler" : 11, "source" : 11, "name" : ""}, {"sampler" : 12, "source" : 12, "name" : ""}, {"sampler" : 13, "source" : 13, "name" : ""}]}