{
  "accessors": [
    {
      "bufferView": 2,
      "componentType": 5126,
      "count": 18544,
      "max": [
        0.8796266913414001,
        0.9063045382499695,
        0.8969845175743103
      ],
      "min": [
        -0.8792469501495361,
        -0.8989810943603516,
        -0.8818762898445129
      ],
      "type": "VEC3"
    },
    {
      "bufferView": 2,
      "byteOffset": 222528,
      "componentType": 5126,
      "count": 18544,
      "max": [
        0.9997962713241577,
        0.9998683929443359,
        0.9999397993087769
      ],
      "min": [
        -0.9998105764389038,
        -0.9999263286590576,
        -0.9998068809509277
      ],
      "type": "VEC3"
    },
    {
      "bufferView": 1,
      "componentType": 5126,
      "count": 18544,
      "max": [
        0.8750006556510925,
        1.0000007152557373
      ],
      "min": [
        0.12500005960464478,
        -4.3655745685100555e-11
      ],
      "type": "VEC2"
    },
    {
      "bufferView": 0,
      "componentType": 5125,
      "count": 78336,
      "type": "SCALAR"
    },
    {
      "bufferView": 2,
      "byteOffset": 445056,
      "componentType": 5126,
      "count": 1728,
      "max": [
        0.8796266913414001,
        0.9152714014053345,
        0.9027769565582275
      ],
      "min": [
        -0.8823642730712891,
        -0.8989810943603516,
        -0.8891918063163757
      ],
      "type": "VEC3"
    },
    {
      "bufferView": 2,
      "byteOffset": 465792,
      "componentType": 5126,
      "count": 1728,
      "max": [
        0.9993133544921875,
        0.9987473487854004,
        0.9999397993087769
      ],
      "min": [
        -0.9992624521255493,
        -0.99958336353302,
        -0.9994378089904785
      ],
      "type": "VEC3"
    },
    {
      "bufferView": 1,
      "byteOffset": 148352,
      "componentType": 5126,
      "count": 1728,
      "max": [
        0.8585083484649658,
        0.9835085868835449
      ],
      "min": [
        0.1414920836687088,
        0.017297470942139626
      ],
      "type": "VEC2"
    },
    {
      "bufferView": 0,
      "byteOffset": 313344,
      "componentType": 5125,
      "count": 4608,
      "type": "SCALAR"
    }
  ],
  "asset": {
    "extras": {
      "author": "anurag.anand (https://sketchfab.com/anurag.anand)",
      "license": "CC-BY-4.0 (http://creativecommons.org/licenses/by/4.0/)",
      "source": "https://sketchfab.com/3d-models/coronavirus-covid-19-e503a898c579454ebe103fc02ea2683c",
      "title": "Coronavirus (COVID-19)"
    },
    "generator": "Sketchfab-12.68.0",
    "version": "2.0"
  },
  "bufferViews": [
    {
      "buffer": 0,
      "byteLength": 331776,
      "name": "floatBufferViews",
      "target": 34963
    },
    {
      "buffer": 0,
      "byteLength": 162176,
      "byteOffset": 331776,
      "byteStride": 8,
      "name": "floatBufferViews",
      "target": 34962
    },
    {
      "buffer": 0,
      "byteLength": 486528,
      "byteOffset": 493952,
      "byteStride": 12,
      "name": "floatBufferViews",
      "target": 34962
    }
  ],
  "buffers": [
    {
      "byteLength": 980480,
      "uri": "scene.bin"
    }
  ],
  "materials": [
    {
      "doubleSided": true,
      "name": "Material",
      "pbrMetallicRoughness": {
        "baseColorFactor": [
          0.8,
          0.147766,
          0.00196682,
          1.0
        ],
        "metallicFactor": 0.0,
        "roughnessFactor": 0.9215570952
      }
    },
    {
      "doubleSided": true,
      "name": "Material.001",
      "pbrMetallicRoughness": {
        "baseColorFactor": [
          0.8,
          0.585017,
          0.0178094,
          1.0
        ],
        "metallicFactor": 0.0,
        "roughnessFactor": 0.8870677368
      }
    }
  ],
  "meshes": [
    {
      "name": "Cube_Material_0",
      "primitives": [
        {
          "attributes": {
            "NORMAL": 1,
            "POSITION": 0,
            "TEXCOORD_0": 2
          },
          "indices": 3,
          "material": 0,
          "mode": 4
        }
      ]
    },
    {
      "name": "Cube_Material.001_0",
      "primitives": [
        {
          "attributes": {
            "NORMAL": 5,
            "POSITION": 4,
            "TEXCOORD_0": 6
          },
          "indices": 7,
          "material": 1,
          "mode": 4
        }
      ]
    }
  ],
  "nodes": [
    {
      "children": [
        1
      ],
      "matrix": [
        1.0,
        0.0,
        0.0,
        0.0,
        0.0,
        2.220446049250313e-16,
        -1.0,
        0.0,
        0.0,
        1.0,
        2.220446049250313e-16,
        0.0,
        0.0,
        0.0,
        0.0,
        1.0
      ],
      "name": "Sketchfab_model"
    },
    {
      "children": [
        2
      ],
      "matrix": [
        1.0,
        0.0,
        0.0,
        0.0,
        0.0,
        0.0,
        1.0,
        0.0,
        0.0,
        -1.0,
        0.0,
        0.0,
        0.0,
        0.0,
        0.0,
        1.0
      ],
      "name": "526d6106dbe04824a7eb2f0d281ae749.fbx"
    },
    {
      "children": [
        3
      ],
      "name": "RootNode"
    },
    {
      "children": [
        4,
        5
      ],
      "matrix": [
        100.0,
        0.0,
        0.0,
        0.0,
        0.0,
        -1.629206793918314e-05,
        -99.99999999999868,
        0.0,
        0.0,
        99.99999999999868,
        -1.629206793918314e-05,
        0.0,
        0.0,
        0.0,
        0.0,
        1.0
      ],
      "name": "Cube"
    },
    {
      "mesh": 0,
      "name": "Cube_Material_0"
    },
    {
      "mesh": 1,
      "name": "Cube_Material.001_0"
    }
  ],
  "scene": 0,
  "scenes": [
    {
      "name": "Sketchfab_Scene",
      "nodes": [
        0
      ]
    }
  ]
}
