{
  "accessors": [
    {
      "bufferView": 2,
      "componentType": 5126,
      "count": 3304,
      "max": [
        1.9699902534484863,
        6.017518043518066,
        1.9699902534484863
      ],
      "min": [
        -1.9699902534484863,
        0.020750051364302635,
        -1.9699902534484863
      ],
      "type": "VEC3"
    },
    {
      "bufferView": 2,
      "byteOffset": 39648,
      "componentType": 5126,
      "count": 3304,
      "max": [
        0.9999979734420776,
        1.0,
        0.9999979734420776
      ],
      "min": [
        -0.9999979734420776,
        -1.0,
        -0.9999979734420776
      ],
      "type": "VEC3"
    },
    {
      "bufferView": 3,
      "componentType": 5126,
      "count": 3304,
      "max": [
        0.9997356534004211,
        0.9999375939369202,
        0.9999998211860657,
        1.0
      ],
      "min": [
        -0.9998568296432495,
        -0.9953544735908508,
        -0.9368864893913269,
        1.0
      ],
      "type": "VEC4"
    },
    {
      "bufferView": 1,
      "componentType": 5126,
      "count": 3304,
      "max": [
        0.9762671589851379,
        0.9742435216903687
      ],
      "min": [
        0.020104680210351944,
        0.0021158915478736162
      ],
      "type": "VEC2"
    },
    {
      "bufferView": 0,
      "componentType": 5125,
      "count": 17976,
      "type": "SCALAR"
    },
    {
      "bufferView": 2,
      "byteOffset": 79296,
      "componentType": 5126,
      "count": 7588,
      "max": [
        2.439849853515625,
        4.058923721313477,
        0.21469898521900177
      ],
      "min": [
        -2.439849853515625,
        1.5706300735473633,
        -0.21469815075397491
      ],
      "type": "VEC3"
    },
    {
      "bufferView": 2,
      "byteOffset": 170352,
      "componentType": 5126,
      "count": 7588,
      "max": [
        0.9998255968093872,
        0.9967826008796692,
        0.9999748468399048
      ],
      "min": [
        -0.9998255968093872,
        -0.9993644952774048,
        -0.9999748468399048
      ],
      "type": "VEC3"
    },
    {
      "bufferView": 1,
      "byteOffset": 26432,
      "componentType": 5126,
      "count": 7588,
      "max": [
        1.0,
        1.0
      ],
      "min": [
        0.0,
        0.0
      ],
      "type": "VEC2"
    },
    {
      "bufferView": 0,
      "byteOffset": 71904,
      "componentType": 5125,
      "count": 43176,
      "type": "SCALAR"
    }
  ],
  "asset": {
    "extras": {
      "author": "TheLastAirblender (https://sketchfab.com/TheLastAirblender)",
      "license": "CC-BY-4.0 (http://creativecommons.org/licenses/by/4.0/)",
      "source": "https://sketchfab.com/3d-models/day31-trophy-5cbb82dda4284841b51d6d0974a741ab",
      "title": "Day31 Trophy"
    },
    "generator": "Sketchfab-12.65.0",
    "version": "2.0"
  },
  "bufferViews": [
    {
      "buffer": 0,
      "byteLength": 244608,
      "name": "floatBufferViews",
      "target": 34963
    },
    {
      "buffer": 0,
      "byteLength": 87136,
      "byteOffset": 244608,
      "byteStride": 8,
      "name": "floatBufferViews",
      "target": 34962
    },
    {
      "buffer": 0,
      "byteLength": 261408,
      "byteOffset": 331744,
      "byteStride": 12,
      "name": "floatBufferViews",
      "target": 34962
    },
    {
      "buffer": 0,
      "byteLength": 52864,
      "byteOffset": 593152,
      "byteStride": 16,
      "name": "floatBufferViews",
      "target": 34962
    }
  ],
  "buffers": [
    {
      "byteLength": 646016,
      "uri": "scene.bin"
    }
  ],
  "images": [
    {
      "uri": "textures/Material_normal.png"
    }
  ],
  "materials": [
    {
      "doubleSided": true,
      "name": "Material",
      "normalTexture": {
        "index": 0
      },
      "pbrMetallicRoughness": {
        "baseColorFactor": [
          0.8,
          0.346594,
          0.110568,
          1.0
        ],
        "roughnessFactor": 0.15314588159470777
      }
    },
    {
      "doubleSided": true,
      "name": "Material.001",
      "pbrMetallicRoughness": {
        "baseColorFactor": [
          0.8,
          0.346594,
          0.110568,
          1.0
        ],
        "roughnessFactor": 0.5
      }
    }
  ],
  "meshes": [
    {
      "name": "Object_0",
      "primitives": [
        {
          "attributes": {
            "NORMAL": 1,
            "POSITION": 0,
            "TANGENT": 2,
            "TEXCOORD_0": 3
          },
          "indices": 4,
          "material": 0,
          "mode": 4
        }
      ]
    },
    {
      "name": "Object_1",
      "primitives": [
        {
          "attributes": {
            "NORMAL": 6,
            "POSITION": 5,
            "TEXCOORD_0": 7
          },
          "indices": 8,
          "material": 1,
          "mode": 4
        }
      ]
    }
  ],
  "nodes": [
    {
      "children": [
        1
      ],
      "matrix": [
        1.0,
        0.0,
        0.0,
        0.0,
        0.0,
        2.220446049250313e-16,
        -1.0,
        0.0,
        0.0,
        1.0,
        2.220446049250313e-16,
        0.0,
        0.0,
        0.0,
        0.0,
        1.0
      ],
      "name": "Sketchfab_model"
    },
    {
      "children": [
        2
      ],
      "name": "root"
    },
    {
      "children": [
        3,
        5
      ],
      "matrix": [
        1.0,
        0.0,
        0.0,
        0.0,
        0.0,
        2.220446049250313e-16,
        1.0,
        0.0,
        0.0,
        -1.0,
        2.220446049250313e-16,
        0.0,
        0.0,
        0.0,
        0.0,
        1.0
      ],
      "name": "GLTF_SceneRootNode"
    },
    {
      "children": [
        4
      ],
      "name": "BezierCurve.002_1"
    },
    {
      "mesh": 0,
      "name": "Object_4"
    },
    {
      "children": [
        6
      ],
      "name": "BezierCurve.003_3"
    },
    {
      "mesh": 1,
      "name": "Object_6"
    }
  ],
  "samplers": [
    {
      "magFilter": 9729,
      "minFilter": 9987,
      "wrapS": 10497,
      "wrapT": 10497
    }
  ],
  "scene": 0,
  "scenes": [
    {
      "name": "Sketchfab_Scene",
      "nodes": [
        0
      ]
    }
  ],
  "textures": [
    {
      "sampler": 0,
      "source": 0
    }
  ]
}
